# Blender 3.3.1
# www.blender.org
mtllib eskei.mtl
o sk8
v 3.727494 0.764106 6.882118
v 3.530677 0.863113 -7.362059
v 3.727494 -0.235894 6.882118
v 3.530677 -0.136887 -7.362059
v -3.745661 0.778234 6.886660
v -3.554060 0.877183 -7.358961
v -3.745661 -0.221766 6.886660
v -3.554060 -0.122817 -7.358961
v 4.000000 0.748339 -6.462633
v -4.000000 -0.243592 -6.462633
v 4.000000 -0.251661 -6.462633
v -4.000000 0.756408 -6.462633
v 2.568089 1.060042 -8.195099
v 2.540218 0.477105 8.920155
v 2.568089 0.060042 -8.195099
v 2.540218 1.477105 8.920155
v 2.568089 0.808738 -6.462633
v 2.568089 -0.191262 -6.462633
v -2.684315 1.060042 -8.195099
v -2.712187 0.477105 8.920155
v -2.684315 -0.191262 -6.462633
v -2.684315 0.060042 -8.195099
v -2.712187 1.477105 8.920155
v -2.684315 0.808738 -6.462633
v -4.000000 -0.391660 5.949932
v 4.000000 0.600086 5.948500
v 4.000000 -0.399914 5.948500
v -4.000000 0.608340 5.949932
v 2.568089 0.634619 5.955397
v 2.568089 -0.365381 5.955397
v -2.684315 0.635339 5.955442
v -2.684315 -0.364661 5.955442
v 2.559172 -0.191973 6.894115
v -2.693233 -0.189763 6.894254
v -2.693233 0.810237 6.894254
v 2.559172 0.808027 6.894116
v -3.209323 0.112931 7.940015
v -3.209324 1.112931 7.940015
v 3.105723 0.106759 7.947101
v 3.105722 1.106760 7.947102
v 4.000000 0.511195 4.857361
v 4.000000 0.500000 3.728991
v 4.000000 0.500000 2.602033
v 4.000000 0.500000 1.475075
v 4.000000 0.500000 0.348116
v 4.000000 0.500000 -0.778843
v 4.000000 0.500951 -1.905801
v 4.000000 0.523233 -3.032760
v 4.000000 0.574009 -4.159718
v 4.000000 0.650346 -5.286676
v 4.000000 -0.488805 4.857361
v 4.000000 -0.500000 3.728991
v 4.000000 -0.500000 2.602033
v 4.000000 -0.500000 1.475075
v 4.000000 -0.500000 0.348116
v 4.000000 -0.500000 -0.778843
v 4.000000 -0.499049 -1.905801
v 4.000000 -0.476767 -3.032760
v 4.000000 -0.425991 -4.159718
v 4.000000 -0.349654 -5.286676
v -4.000000 0.513211 4.857699
v -4.000000 0.500000 3.728991
v -4.000000 0.500000 2.602033
v -4.000000 0.500000 1.475075
v -4.000000 0.500000 0.348116
v -4.000000 0.500000 -0.778843
v -4.000000 0.501129 -1.905801
v -4.000000 0.524258 -3.032760
v -4.000000 0.576293 -4.159718
v -4.000000 0.654658 -5.286676
v 2.568089 0.519885 4.859115
v 2.568089 0.500000 3.728991
v 2.568089 0.500000 2.602033
v 2.568089 0.500000 1.475075
v 2.568089 0.500000 0.348116
v 2.568089 0.500000 -0.778843
v 2.568089 0.502376 -1.905801
v 2.568089 0.530313 -3.032760
v 2.568089 0.589681 -4.159718
v 2.568089 0.680480 -5.286676
v 2.568089 -0.480115 4.859115
v 2.568089 -0.500000 3.728991
v 2.568089 -0.500000 2.602033
v 2.568089 -0.500000 1.475075
v 2.568089 -0.500000 0.348116
v 2.568089 -0.500000 -0.778843
v 2.568089 -0.497624 -1.905801
v 2.568089 -0.469687 -3.032760
v 2.568089 -0.410319 -4.159718
v 2.568089 -0.319520 -5.286676
v -2.684315 0.520138 4.859131
v -2.684315 0.500000 3.728991
v -2.684315 0.500000 2.602033
v -2.684315 0.500000 1.475075
v -2.684315 0.500000 0.348116
v -2.684315 0.500000 -0.778843
v -2.684315 0.502376 -1.905801
v -2.684315 0.530313 -3.032760
v -2.684315 0.589681 -4.159718
v -2.684315 0.680480 -5.286676
v -2.684315 -0.479862 4.859131
v -2.684315 -0.500000 3.728991
v -2.684315 -0.500000 2.602033
v -2.684315 -0.500000 1.475075
v -2.684315 -0.500000 0.348116
v -2.684315 -0.500000 -0.778843
v -2.684315 -0.497624 -1.905801
v -2.684315 -0.469687 -3.032760
v -2.684315 -0.410319 -4.159718
v -2.684315 -0.319520 -5.286676
v -4.000000 -0.345342 -5.286676
v -4.000000 -0.423707 -4.159718
v -4.000000 -0.475742 -3.032760
v -4.000000 -0.498871 -1.905801
v -4.000000 -0.500000 -0.778843
v -4.000000 -0.500000 0.348116
v -4.000000 -0.500000 1.475074
v -4.000000 -0.500000 2.602033
v -4.000000 -0.500000 3.728991
v -4.000000 -0.486789 4.857699
vn -0.8918 -0.0000 0.4524
vn 0.0235 -0.9838 0.1778
vn -0.9651 -0.0000 0.2620
vn 0.6544 -0.0000 -0.7562
vn 0.9599 -0.0000 0.2802
vn 0.0284 0.9845 -0.1731
vn 0.0624 0.9900 0.1266
vn 0.8866 -0.0000 -0.4626
vn -0.8953 -0.0000 -0.4454
vn 0.0566 -0.9898 -0.1305
vn -0.0624 -0.9900 -0.1266
vn -0.0000 0.9896 0.1436
vn 0.0003 0.9832 -0.1824
vn -0.0000 -0.0000 -1.0000
vn -0.0284 -0.9845 0.1731
vn 0.8636 -0.0000 0.5042
vn -0.6930 -0.0000 -0.7209
vn -0.0235 0.9838 -0.1778
vn -0.0566 0.9898 0.1305
vn -0.0000 -0.9896 -0.1436
vn -0.0003 -0.9832 0.1824
vn -0.0000 -0.0000 1.0000
vn -0.0001 -0.9945 0.1043
vn -0.0126 0.9953 -0.0957
vn -0.0147 -0.9956 0.0927
vn 0.0001 0.9945 -0.1043
vn 0.0147 0.9956 -0.0927
vn 1.0000 -0.0000 -0.0000
vn -1.0000 -0.0000 -0.0000
vn 0.0126 -0.9953 0.0957
vn 0.0295 -0.9948 -0.0973
vn -0.0002 -0.9497 0.3131
vn -0.0572 -0.9523 0.2998
vn 0.0515 -0.9522 0.3011
vn -0.0515 0.9522 -0.3011
vn 0.0572 0.9523 -0.2998
vn 0.0002 0.9497 -0.3131
vn -0.8911 -0.0000 0.4537
vn 0.8646 -0.0000 0.5025
vn 0.0149 -0.9971 -0.0748
vn 0.0074 -0.9988 -0.0494
vn 0.0028 -0.9997 -0.0227
vn 0.0005 -1.0000 -0.0016
vn -0.0000 -1.0000 -0.0000
vn 0.0026 -0.9999 0.0148
vn 0.0315 0.9949 0.0957
vn 0.0159 0.9971 0.0739
vn 0.0079 0.9988 0.0488
vn 0.0030 0.9997 0.0223
vn 0.0005 1.0000 0.0015
vn -0.0000 1.0000 -0.0000
vn 0.0030 0.9999 -0.0138
vn -0.0000 0.9941 0.1084
vn -0.0000 0.9968 0.0803
vn -0.0000 0.9986 0.0526
vn -0.0000 0.9997 0.0248
vn -0.0000 1.0000 0.0021
vn -0.0000 0.9998 -0.0177
vn -0.0315 -0.9949 -0.0957
vn -0.0159 -0.9971 -0.0739
vn -0.0079 -0.9988 -0.0488
vn -0.0030 -0.9997 -0.0223
vn -0.0005 -1.0000 -0.0015
vn -0.0030 -0.9999 0.0138
vn -0.0295 0.9948 0.0973
vn -0.0149 0.9971 0.0748
vn -0.0074 0.9988 0.0494
vn -0.0028 0.9997 0.0227
vn -0.0005 1.0000 0.0016
vn -0.0026 0.9999 -0.0148
vn -0.0000 -0.9941 -0.1084
vn -0.0000 -0.9968 -0.0803
vn -0.0000 -0.9986 -0.0526
vn -0.0000 -0.9997 -0.0248
vn -0.0000 -1.0000 -0.0021
vn -0.0000 -0.9998 0.0177
vt 0.613760 0.500000
vt 0.375801 0.512288
vt 0.613760 0.750000
vt 0.378040 0.752124
vt 0.613760 0.250000
vt 0.886700 0.500000
vt 0.125000 0.500000
vt 0.375000 0.250000
vt 0.613760 0.000000
vt 0.613760 1.000000
vt 0.886700 0.750000
vt 0.375000 0.000000
vt 0.375000 1.000000
vt 0.125000 0.750000
vt 0.399021 0.500000
vt 0.399021 1.000000
vt 0.399021 0.000000
vt 0.399021 0.750000
vt 0.399021 0.250000
vt 0.375000 0.455253
vt 0.330253 0.500000
vt 0.625000 0.794747
vt 0.669747 0.750000
vt 0.330253 0.750000
vt 0.375000 0.794747
vt 0.625000 0.455253
vt 0.669747 0.500000
vt 0.399021 0.455253
vt 0.399021 0.794747
vt 0.166115 0.500000
vt 0.375000 0.291115
vt 0.833885 0.750000
vt 0.625000 0.958885
vt 0.399021 0.958885
vt 0.166115 0.750000
vt 0.375000 0.958885
vt 0.833885 0.500000
vt 0.625000 0.291115
vt 0.399021 0.291115
vt 0.592717 0.000000
vt 0.592717 1.000000
vt 0.592717 0.500000
vt 0.592717 0.750000
vt 0.592717 0.250000
vt 0.592717 0.455253
vt 0.592717 0.794747
vt 0.592717 0.291115
vt 0.592717 0.958885
vt 0.603046 0.794747
vt 0.603046 0.958885
vt 0.603046 0.291115
vt 0.603046 0.455253
vt 0.619593 0.978663
vt 0.859291 0.750000
vt 0.619593 0.271337
vt 0.859291 0.500000
vt 0.619646 0.773434
vt 0.643080 0.750000
vt 0.619646 0.476566
vt 0.643080 0.500000
vt 0.575874 0.500000
vt 0.558266 0.500000
vt 0.540657 0.500000
vt 0.523048 0.500000
vt 0.505439 0.500000
vt 0.487831 0.500000
vt 0.470222 0.500000
vt 0.452613 0.500000
vt 0.435004 0.500000
vt 0.417396 0.500000
vt 0.575874 0.750000
vt 0.558265 0.750000
vt 0.540657 0.750000
vt 0.523048 0.750000
vt 0.505439 0.750000
vt 0.487831 0.750000
vt 0.470222 0.750000
vt 0.452613 0.750000
vt 0.435004 0.750000
vt 0.417396 0.750000
vt 0.575874 0.250000
vt 0.558265 0.250000
vt 0.540657 0.250000
vt 0.523048 0.250000
vt 0.505439 0.250000
vt 0.487831 0.250000
vt 0.470222 0.250000
vt 0.452613 0.250000
vt 0.435004 0.250000
vt 0.417396 0.250000
vt 0.575874 0.455253
vt 0.558266 0.455253
vt 0.540657 0.455253
vt 0.523048 0.455253
vt 0.505439 0.455253
vt 0.487831 0.455253
vt 0.470222 0.455253
vt 0.452613 0.455253
vt 0.435004 0.455253
vt 0.417396 0.455253
vt 0.575874 0.794747
vt 0.558265 0.794747
vt 0.540657 0.794747
vt 0.523048 0.794747
vt 0.505439 0.794747
vt 0.487831 0.794747
vt 0.470222 0.794747
vt 0.452613 0.794747
vt 0.435004 0.794747
vt 0.417396 0.794747
vt 0.575874 0.291115
vt 0.558266 0.291115
vt 0.540657 0.291115
vt 0.523048 0.291115
vt 0.505439 0.291115
vt 0.487831 0.291115
vt 0.470222 0.291115
vt 0.452613 0.291115
vt 0.435004 0.291115
vt 0.417396 0.291115
vt 0.575874 0.958885
vt 0.558265 0.958885
vt 0.540657 0.958885
vt 0.523048 0.958885
vt 0.505439 0.958885
vt 0.487831 0.958885
vt 0.470222 0.958885
vt 0.452613 0.958885
vt 0.435004 0.958885
vt 0.417396 0.958885
vt 0.417396 1.000000
vt 0.417396 0.000000
vt 0.435004 1.000000
vt 0.435004 0.000000
vt 0.452613 1.000000
vt 0.452613 0.000000
vt 0.470222 1.000000
vt 0.470222 0.000000
vt 0.487831 1.000000
vt 0.487831 0.000000
vt 0.505439 1.000000
vt 0.505439 0.000000
vt 0.523048 1.000000
vt 0.523048 0.000000
vt 0.540657 1.000000
vt 0.540657 0.000000
vt 0.558266 1.000000
vt 0.558266 0.000000
vt 0.575874 1.000000
vt 0.575874 0.000000
s 0
usemtl Material
f 23/37/1 38/56/1 37/54/1 20/32/1
f 32/48/2 34/50/2 7/10/2 25/41/2
f 25/40/3 7/9/3 5/5/3 28/44/3
f 13/21/4 2/2/4 4/4/4 15/24/4
f 26/42/5 1/1/5 3/3/5 27/43/5
f 29/45/6 36/52/6 1/1/6 26/42/6
f 13/20/7 17/28/7 9/15/7 2/2/7
f 2/2/8 9/15/8 11/18/8 4/4/8
f 8/12/9 10/17/9 12/19/9 6/8/9
f 22/36/10 21/34/10 10/16/10 8/13/10
f 4/4/11 11/18/11 18/29/11 15/25/11
f 19/31/12 24/39/12 17/28/12 13/20/12
f 31/47/13 35/51/13 36/52/13 29/45/13
f 19/30/14 13/21/14 15/24/14 22/35/14
f 27/43/15 3/3/15 33/49/15 30/46/15
f 1/1/16 40/60/16 39/58/16 3/3/16
f 6/7/17 19/30/17 22/35/17 8/14/17
f 28/44/18 5/5/18 35/51/18 31/47/18
f 6/8/19 12/19/19 24/39/19 19/31/19
f 15/25/20 18/29/20 21/34/20 22/36/20
f 30/46/21 33/49/21 34/50/21 32/48/21
f 16/27/22 23/37/22 20/32/22 14/23/22
f 81/101/23 30/46/23 32/48/23 101/121/23
f 61/81/24 28/44/24 31/47/24 91/111/24
f 51/71/25 27/43/25 30/46/25 81/101/25
f 91/111/26 31/47/26 29/45/26 71/91/26
f 71/91/27 29/45/27 26/42/27 41/61/27
f 41/61/28 26/42/28 27/43/28 51/71/28
f 120/150/29 25/40/29 28/44/29 61/81/29
f 101/121/30 32/48/30 25/41/30 120/149/30
f 21/34/31 110/130/31 111/131/31 10/16/31
f 34/50/32 33/49/32 14/22/32 20/33/32
f 33/49/33 3/3/33 39/57/33 14/22/33
f 7/10/34 34/50/34 20/33/34 37/53/34
f 35/51/35 5/5/35 38/55/35 23/38/35
f 1/1/36 36/52/36 16/26/36 40/59/36
f 36/52/37 35/51/37 23/38/37 16/26/37
f 37/54/38 38/56/38 5/6/38 7/11/38
f 39/58/39 40/60/39 16/27/39 14/23/39
f 110/130/40 109/129/40 112/133/40 111/131/40
f 109/129/41 108/128/41 113/135/41 112/133/41
f 108/128/42 107/127/42 114/137/42 113/135/42
f 107/127/43 106/126/43 115/139/43 114/137/43
f 106/126/44 105/125/44 116/141/44 115/139/44
f 105/125/44 104/124/44 117/143/44 116/141/44
f 104/124/44 103/123/44 118/145/44 117/143/44
f 103/123/44 102/122/44 119/147/44 118/145/44
f 102/122/45 101/121/45 120/149/45 119/147/45
f 10/17/29 111/132/29 70/90/29 12/19/29
f 111/132/29 112/134/29 69/89/29 70/90/29
f 112/134/29 113/136/29 68/88/29 69/89/29
f 113/136/29 114/138/29 67/87/29 68/88/29
f 114/138/29 115/140/29 66/86/29 67/87/29
f 115/140/29 116/142/29 65/85/29 66/86/29
f 116/142/29 117/144/29 64/84/29 65/85/29
f 117/144/29 118/146/29 63/83/29 64/84/29
f 118/146/29 119/148/29 62/82/29 63/83/29
f 119/148/29 120/150/29 61/81/29 62/82/29
f 9/15/28 50/70/28 60/80/28 11/18/28
f 50/70/28 49/69/28 59/79/28 60/80/28
f 49/69/28 48/68/28 58/78/28 59/79/28
f 48/68/28 47/67/28 57/77/28 58/78/28
f 47/67/28 46/66/28 56/76/28 57/77/28
f 46/66/28 45/65/28 55/75/28 56/76/28
f 45/65/28 44/64/28 54/74/28 55/75/28
f 44/64/28 43/63/28 53/73/28 54/74/28
f 43/63/28 42/62/28 52/72/28 53/73/28
f 42/62/28 41/61/28 51/71/28 52/72/28
f 17/28/46 80/100/46 50/70/46 9/15/46
f 80/100/47 79/99/47 49/69/47 50/70/47
f 79/99/48 78/98/48 48/68/48 49/69/48
f 78/98/49 77/97/49 47/67/49 48/68/49
f 77/97/50 76/96/50 46/66/50 47/67/50
f 76/96/51 75/95/51 45/65/51 46/66/51
f 75/95/51 74/94/51 44/64/51 45/65/51
f 74/94/51 73/93/51 43/63/51 44/64/51
f 73/93/51 72/92/51 42/62/51 43/63/51
f 72/92/52 71/91/52 41/61/52 42/62/52
f 24/39/53 100/120/53 80/100/53 17/28/53
f 100/120/54 99/119/54 79/99/54 80/100/54
f 99/119/55 98/118/55 78/98/55 79/99/55
f 98/118/56 97/117/56 77/97/56 78/98/56
f 97/117/57 96/116/57 76/96/57 77/97/57
f 96/116/51 95/115/51 75/95/51 76/96/51
f 95/115/51 94/114/51 74/94/51 75/95/51
f 94/114/51 93/113/51 73/93/51 74/94/51
f 93/113/51 92/112/51 72/92/51 73/93/51
f 92/112/58 91/111/58 71/91/58 72/92/58
f 11/18/59 60/80/59 90/110/59 18/29/59
f 60/80/60 59/79/60 89/109/60 90/110/60
f 59/79/61 58/78/61 88/108/61 89/109/61
f 58/78/62 57/77/62 87/107/62 88/108/62
f 57/77/63 56/76/63 86/106/63 87/107/63
f 56/76/44 55/75/44 85/105/44 86/106/44
f 55/75/44 54/74/44 84/104/44 85/105/44
f 54/74/44 53/73/44 83/103/44 84/104/44
f 53/73/44 52/72/44 82/102/44 83/103/44
f 52/72/64 51/71/64 81/101/64 82/102/64
f 12/19/65 70/90/65 100/120/65 24/39/65
f 70/90/66 69/89/66 99/119/66 100/120/66
f 69/89/67 68/88/67 98/118/67 99/119/67
f 68/88/68 67/87/68 97/117/68 98/118/68
f 67/87/69 66/86/69 96/116/69 97/117/69
f 66/86/51 65/85/51 95/115/51 96/116/51
f 65/85/51 64/84/51 94/114/51 95/115/51
f 64/84/51 63/83/51 93/113/51 94/114/51
f 63/83/51 62/82/51 92/112/51 93/113/51
f 62/82/70 61/81/70 91/111/70 92/112/70
f 18/29/71 90/110/71 110/130/71 21/34/71
f 90/110/72 89/109/72 109/129/72 110/130/72
f 89/109/73 88/108/73 108/128/73 109/129/73
f 88/108/74 87/107/74 107/127/74 108/128/74
f 87/107/75 86/106/75 106/126/75 107/127/75
f 86/106/44 85/105/44 105/125/44 106/126/44
f 85/105/44 84/104/44 104/124/44 105/125/44
f 84/104/44 83/103/44 103/123/44 104/124/44
f 83/103/44 82/102/44 102/122/44 103/123/44
f 82/102/76 81/101/76 101/121/76 102/122/76
